# xmcd
#
# Track frame offsets:
#	150
#	14184
#	22449
#	37385
#	50207
#	63616
#	72456
#	83831
#	94096
#	105850
#	121905
#	136185
#	147050
#
# Disc length: 2262 seconds
# Revision: 0
# Processed by: cddbd v1.5.2PL0 Copyright (c) Steve Scherf et al.
# Submitted via: dBpowerAMP V12.0
#
DISCID=c508d40d
DTITLE=Jeneve Rose Mitchell - Rocky Mountain Hillbilly Girl
DYEAR=2014
DGENRE=
TTITLE0=Swingtime Cowgirl
TTITLE1=Bury Me Not on the Lone Prarie
TTITLE2=Rocky Mountain Hillbilly Girl
TTITLE3=Colorado Trail
TTITLE4=Ragtime Grammy
TTITLE5=Shadow on the Mountain
TTITLE6=Cowboy Singing the Cowgirl Blues
TTITLE7=Mariah
TTITLE8=Uncle Penn
TTITLE9=Colorado Skies
TTITLE10=Deck Em
TTITLE11=Sugar Plum from San Antone
TTITLE12=Cool Water
EXTD=
EXTT0=
EXTT1=
EXTT2=
EXTT3=
EXTT4=
EXTT5=
EXTT6=
EXTT7=
EXTT8=
EXTT9=
EXTT10=
EXTT11=
EXTT12=
PLAYORDER=
